# Blender 5.0.0
# www.blender.org
mtllib sky.mtl
o Sky
v 0.000000 -1.847176 -140.157761
v 0.000000 142.855225 -140.157761
v 29.263548 -1.847176 -137.275543
v 29.263548 142.855225 -137.275543
v 57.402519 -1.847176 -128.739685
v 57.402519 142.855225 -128.739685
v 83.335533 -1.847176 -114.878204
v 83.335533 142.855225 -114.878204
v 106.066017 -1.847176 -96.223785
v 106.066017 142.855225 -96.223785
v 124.720436 -1.847176 -73.493301
v 124.720436 142.855225 -73.493301
v 138.581924 -1.847176 -47.560284
v 138.581924 142.855225 -47.560284
v 147.117783 -1.847176 -19.421312
v 147.117783 142.855225 -19.421312
v 150.000000 -1.847176 9.842236
v 150.000000 142.855225 9.842236
v 147.117783 -1.847176 39.105782
v 147.117783 142.855225 39.105782
v 138.581924 -1.847176 67.244751
v 138.581924 142.855225 67.244751
v 124.720436 -1.847176 93.177765
v 124.720436 142.855225 93.177765
v 106.066017 -1.847176 115.908249
v 106.066017 142.855225 115.908249
v 83.335533 -1.847176 134.562668
v 83.335533 142.855225 134.562668
v 57.402519 -1.847176 148.424164
v 57.402519 142.855225 148.424164
v 29.263548 -1.847176 156.960022
v 29.263548 142.855225 156.960022
v 0.000000 -1.847176 159.842239
v 0.000000 142.855225 159.842239
v -29.263548 -1.847176 156.960022
v -29.263548 142.855225 156.960022
v -57.402519 -1.847176 148.424164
v -57.402519 142.855225 148.424164
v -83.335533 -1.847176 134.562668
v -83.335533 142.855225 134.562668
v -106.066017 -1.847176 115.908249
v -106.066017 142.855225 115.908249
v -124.720436 -1.847176 93.177765
v -124.720436 142.855225 93.177765
v -138.581924 -1.847176 67.244751
v -138.581924 142.855225 67.244751
v -147.117783 -1.847176 39.105782
v -147.117783 142.855225 39.105782
v -150.000000 -1.847176 9.842236
v -150.000000 142.855225 9.842236
v -147.117783 -1.847176 -19.421312
v -147.117783 142.855225 -19.421312
v -138.581924 -1.847176 -47.560284
v -138.581924 142.855225 -47.560284
v -124.720436 -1.847176 -73.493301
v -124.720436 142.855225 -73.493301
v -106.066017 -1.847176 -96.223785
v -106.066017 142.855225 -96.223785
v -83.335533 -1.847176 -114.878204
v -83.335533 142.855225 -114.878204
v -57.402519 -1.847176 -128.739685
v -57.402519 142.855225 -128.739685
v -29.263548 -1.847176 -137.275543
v -29.263548 142.855225 -137.275543
vn -0.0980 -0.0000 0.9952
vn -0.2903 -0.0000 0.9569
vn -0.4714 -0.0000 0.8819
vn -0.6344 -0.0000 0.7730
vn -0.7730 -0.0000 0.6344
vn -0.8819 -0.0000 0.4714
vn -0.9569 -0.0000 0.2903
vn -0.9952 -0.0000 0.0980
vn -0.9952 -0.0000 -0.0980
vn -0.9569 -0.0000 -0.2903
vn -0.8819 -0.0000 -0.4714
vn -0.7730 -0.0000 -0.6344
vn -0.6344 -0.0000 -0.7730
vn -0.4714 -0.0000 -0.8819
vn -0.2903 -0.0000 -0.9569
vn -0.0980 -0.0000 -0.9952
vn 0.0980 -0.0000 -0.9952
vn 0.2903 -0.0000 -0.9569
vn 0.4714 -0.0000 -0.8819
vn 0.6344 -0.0000 -0.7730
vn 0.7730 -0.0000 -0.6344
vn 0.8819 -0.0000 -0.4714
vn 0.9569 -0.0000 -0.2903
vn 0.9952 -0.0000 -0.0980
vn 0.9952 -0.0000 0.0980
vn 0.9569 -0.0000 0.2903
vn 0.8819 -0.0000 0.4714
vn 0.7730 -0.0000 0.6344
vn 0.6344 -0.0000 0.7730
vn 0.4714 -0.0000 0.8819
vn -0.0000 -1.0000 -0.0000
vn 0.2903 -0.0000 0.9569
vn 0.0980 -0.0000 0.9952
vn -0.0000 1.0000 -0.0000
vt 0.968750 0.492664
vt 1.000000 0.712042
vt 1.000000 0.492664
vt 0.937500 0.492664
vt 0.968750 0.712042
vt 0.906250 0.492664
vt 0.937500 0.712042
vt 0.875000 0.492664
vt 0.906250 0.712042
vt 0.843750 0.492664
vt 0.875000 0.712042
vt 0.812500 0.492664
vt 0.843750 0.712042
vt 0.781250 0.492664
vt 0.812500 0.712042
vt 0.750000 0.492664
vt 0.781250 0.712042
vt 0.718750 0.492664
vt 0.750000 0.712042
vt 0.687500 0.492664
vt 0.718750 0.712042
vt 0.656250 0.492664
vt 0.687500 0.712042
vt 0.625000 0.492664
vt 0.656250 0.712042
vt 0.593750 0.492664
vt 0.625000 0.712042
vt 0.562500 0.492664
vt 0.593750 0.712042
vt 0.531250 0.492664
vt 0.562500 0.712042
vt 0.500000 0.492664
vt 0.531250 0.712042
vt 0.468750 0.492664
vt 0.500000 0.712042
vt 0.437500 0.492664
vt 0.468750 0.712042
vt 0.406250 0.492664
vt 0.437500 0.712042
vt 0.375000 0.492664
vt 0.406250 0.712042
vt 0.343750 0.492664
vt 0.375000 0.712042
vt 0.312500 0.492664
vt 0.343750 0.712042
vt 0.281250 0.492664
vt 0.312500 0.712042
vt 0.250000 0.492664
vt 0.281250 0.712042
vt 0.218750 0.492664
vt 0.250000 0.712042
vt 0.187500 0.492664
vt 0.218750 0.712042
vt 0.156250 0.492664
vt 0.187500 0.712042
vt 0.125000 0.492664
vt 0.156250 0.712042
vt 0.093750 0.492664
vt 0.125000 0.712042
vt 0.062500 0.492664
vt 0.093750 0.712042
vt 0.531116 0.506319
vt 0.287108 0.750327
vt 0.531116 0.994335
vt 0.031250 0.492664
vt 0.062500 0.712042
vt 0.000000 0.492664
vt 0.031250 0.712042
vt 0.602715 0.497812
vt 0.154534 0.431963
vt 0.453999 0.333413
vt 0.578719 0.989647
vt 0.624494 0.975761
vt 0.666679 0.953213
vt 0.703655 0.922867
vt 0.734001 0.885891
vt 0.756549 0.843705
vt 0.770436 0.797931
vt 0.775124 0.750327
vt 0.770436 0.702724
vt 0.756549 0.656950
vt 0.734001 0.614764
vt 0.703655 0.577788
vt 0.666679 0.547442
vt 0.624494 0.524893
vt 0.578719 0.511008
vt 0.483512 0.511008
vt 0.437739 0.524893
vt 0.395552 0.547442
vt 0.358577 0.577788
vt 0.328231 0.614764
vt 0.305682 0.656950
vt 0.291797 0.702724
vt 0.291797 0.797931
vt 0.305682 0.843705
vt 0.328231 0.885891
vt 0.358577 0.922867
vt 0.395552 0.953213
vt 0.437739 0.975761
vt 0.483512 0.989647
vt 0.000000 0.712042
vt 0.528357 0.331803
vt 0.602715 0.333413
vt 0.674215 0.338182
vt 0.740110 0.345927
vt 0.797868 0.356350
vt 0.845268 0.369050
vt 0.880490 0.383540
vt 0.902179 0.399262
vt 0.909503 0.415612
vt 0.902179 0.431963
vt 0.880490 0.447685
vt 0.845268 0.462175
vt 0.797868 0.474875
vt 0.740110 0.485298
vt 0.674215 0.493042
vt 0.528357 0.499422
vt 0.453999 0.497812
vt 0.382499 0.493042
vt 0.316603 0.485298
vt 0.258846 0.474875
vt 0.211445 0.462175
vt 0.176224 0.447685
vt 0.147211 0.415612
vt 0.154534 0.399262
vt 0.176224 0.383540
vt 0.211445 0.369050
vt 0.258846 0.356350
vt 0.316603 0.345927
vt 0.382499 0.338182
s 0
usemtl Material.001
f 3/1/1 2/2/1 1/3/1
f 5/4/2 4/5/2 3/1/2
f 7/6/3 6/7/3 5/4/3
f 9/8/4 8/9/4 7/6/4
f 11/10/5 10/11/5 9/8/5
f 13/12/6 12/13/6 11/10/6
f 15/14/7 14/15/7 13/12/7
f 17/16/8 16/17/8 15/14/8
f 19/18/9 18/19/9 17/16/9
f 21/20/10 20/21/10 19/18/10
f 23/22/11 22/23/11 21/20/11
f 25/24/12 24/25/12 23/22/12
f 27/26/13 26/27/13 25/24/13
f 29/28/14 28/29/14 27/26/14
f 31/30/15 30/31/15 29/28/15
f 33/32/16 32/33/16 31/30/16
f 35/34/17 34/35/17 33/32/17
f 37/36/18 36/37/18 35/34/18
f 39/38/19 38/39/19 37/36/19
f 41/40/20 40/41/20 39/38/20
f 43/42/21 42/43/21 41/40/21
f 45/44/22 44/45/22 43/42/22
f 47/46/23 46/47/23 45/44/23
f 49/48/24 48/49/24 47/46/24
f 51/50/25 50/51/25 49/48/25
f 53/52/26 52/53/26 51/50/26
f 55/54/27 54/55/27 53/52/27
f 57/56/28 56/57/28 55/54/28
f 59/58/29 58/59/29 57/56/29
f 61/60/30 60/61/30 59/58/30
f 34/62/31 50/63/31 2/64/31
f 63/65/32 62/66/32 61/60/32
f 1/67/33 64/68/33 63/65/33
f 35/69/34 19/70/34 3/71/34
f 3/1/1 4/5/1 2/2/1
f 5/4/2 6/7/2 4/5/2
f 7/6/3 8/9/3 6/7/3
f 9/8/4 10/11/4 8/9/4
f 11/10/5 12/13/5 10/11/5
f 13/12/6 14/15/6 12/13/6
f 15/14/7 16/17/7 14/15/7
f 17/16/8 18/19/8 16/17/8
f 19/18/9 20/21/9 18/19/9
f 21/20/10 22/23/10 20/21/10
f 23/22/11 24/25/11 22/23/11
f 25/24/12 26/27/12 24/25/12
f 27/26/13 28/29/13 26/27/13
f 29/28/14 30/31/14 28/29/14
f 31/30/15 32/33/15 30/31/15
f 33/32/16 34/35/16 32/33/16
f 35/34/17 36/37/17 34/35/17
f 37/36/18 38/39/18 36/37/18
f 39/38/19 40/41/19 38/39/19
f 41/40/20 42/43/20 40/41/20
f 43/42/21 44/45/21 42/43/21
f 45/44/22 46/47/22 44/45/22
f 47/46/23 48/49/23 46/47/23
f 49/48/24 50/51/24 48/49/24
f 51/50/25 52/53/25 50/51/25
f 53/52/26 54/55/26 52/53/26
f 55/54/27 56/57/27 54/55/27
f 57/56/28 58/59/28 56/57/28
f 59/58/29 60/61/29 58/59/29
f 61/60/30 62/66/30 60/61/30
f 2/64/31 4/72/31 6/73/31
f 6/73/31 8/74/31 10/75/31
f 10/75/31 12/76/31 14/77/31
f 14/77/31 16/78/31 18/79/31
f 18/79/31 20/80/31 22/81/31
f 22/81/31 24/82/31 26/83/31
f 26/83/31 28/84/31 30/85/31
f 30/85/31 32/86/31 34/62/31
f 34/62/31 36/87/31 38/88/31
f 38/88/31 40/89/31 42/90/31
f 42/90/31 44/91/31 46/92/31
f 46/92/31 48/93/31 50/63/31
f 50/63/31 52/94/31 54/95/31
f 54/95/31 56/96/31 58/97/31
f 58/97/31 60/98/31 62/99/31
f 62/99/31 64/100/31 2/64/31
f 2/64/31 6/73/31 10/75/31
f 10/75/31 14/77/31 18/79/31
f 18/79/31 22/81/31 26/83/31
f 26/83/31 30/85/31 34/62/31
f 34/62/31 38/88/31 42/90/31
f 42/90/31 46/92/31 50/63/31
f 50/63/31 54/95/31 58/97/31
f 58/97/31 62/99/31 2/64/31
f 2/64/31 10/75/31 18/79/31
f 18/79/31 26/83/31 34/62/31
f 34/62/31 42/90/31 50/63/31
f 50/63/31 58/97/31 2/64/31
f 2/64/31 18/79/31 34/62/31
f 63/65/32 64/68/32 62/66/32
f 1/67/33 2/101/33 64/68/33
f 3/71/34 1/102/34 63/103/34
f 63/103/34 61/104/34 59/105/34
f 59/105/34 57/106/34 55/107/34
f 55/107/34 53/108/34 51/109/34
f 51/109/34 49/110/34 47/111/34
f 47/111/34 45/112/34 43/113/34
f 43/113/34 41/114/34 39/115/34
f 39/115/34 37/116/34 35/69/34
f 35/69/34 33/117/34 31/118/34
f 31/118/34 29/119/34 27/120/34
f 27/120/34 25/121/34 23/122/34
f 23/122/34 21/123/34 19/70/34
f 19/70/34 17/124/34 15/125/34
f 15/125/34 13/126/34 11/127/34
f 11/127/34 9/128/34 7/129/34
f 7/129/34 5/130/34 3/71/34
f 3/71/34 63/103/34 59/105/34
f 59/105/34 55/107/34 51/109/34
f 51/109/34 47/111/34 43/113/34
f 43/113/34 39/115/34 35/69/34
f 35/69/34 31/118/34 27/120/34
f 27/120/34 23/122/34 19/70/34
f 19/70/34 15/125/34 11/127/34
f 11/127/34 7/129/34 3/71/34
f 3/71/34 59/105/34 51/109/34
f 51/109/34 43/113/34 35/69/34
f 35/69/34 27/120/34 19/70/34
f 19/70/34 11/127/34 3/71/34
f 3/71/34 51/109/34 35/69/34
