# Blender 5.0.0
# www.blender.org
mtllib tree.mtl
o Tree
v 0.713282 0.021174 0.548624
v 0.196257 3.982129 0.114789
v -0.180133 0.021174 0.771378
v 0.072699 3.982129 0.145596
v -0.668065 0.021174 -0.009476
v 0.005219 3.982129 0.037605
v -0.076208 0.021174 -0.714823
v 0.087072 3.982129 -0.059944
v 0.777511 0.021174 -0.369898
v 0.205140 3.982129 -0.012241
v 0.148671 1.135785 0.591193
v 0.748013 2.126023 0.255414
v -0.210024 3.116262 0.142087
v -0.435686 3.116262 0.198351
v 0.485860 2.126023 0.320776
v -0.282604 1.135785 0.698722
v -0.558929 3.116262 0.001121
v 0.342688 2.126023 0.091652
v -0.518142 1.135785 0.321783
v -0.409436 3.116262 -0.177038
v 0.516355 2.126023 -0.115316
v -0.232437 1.135785 -0.018707
v -0.193801 3.116262 -0.089916
v 0.766860 2.126023 -0.014106
v 0.179676 1.135785 0.147797
v -0.556033 0.021174 -0.057164
v -0.032513 0.021174 -0.681070
v 0.722633 0.021174 -0.375971
v 0.130200 2.701733 -0.069867
v -0.012375 3.366566 -0.659071
v 0.066856 2.764849 -0.019192
v -0.017850 3.372021 -0.654691
v -0.043694 2.747152 -0.035311
v -0.027405 3.370491 -0.656084
v -0.048674 2.673098 -0.095948
v -0.027836 3.364090 -0.661326
v 0.058798 2.645028 -0.117305
v -0.018546 3.361664 -0.663172
v 0.088730 2.916758 -0.274006
v 0.048788 3.036976 -0.295954
v -0.037309 3.242475 -0.466216
v -0.053674 3.258781 -0.453124
v 0.025975 3.059706 -0.277704
v 0.055702 2.949668 -0.247583
v -0.082234 3.254209 -0.457288
v -0.013839 3.053333 -0.283509
v -0.001941 2.940440 -0.255987
v -0.083521 3.235078 -0.472954
v -0.015633 3.026663 -0.305347
v -0.004537 2.901828 -0.287604
v -0.055756 3.227825 -0.478471
v 0.023073 3.016554 -0.313039
v 0.051500 2.887192 -0.298740
v 0.148927 3.259136 -0.937988
v -0.223348 3.352238 -0.411138
v -0.360362 3.325787 -0.740732
v 0.183741 3.440728 -1.154822
v 0.626974 3.194424 -0.745457
v 0.157052 3.275541 -0.145926
v -0.217564 3.538125 -0.493856
v 0.018308 3.626051 -0.886254
v 0.582246 3.449161 -0.933239
v 0.319881 3.677483 -0.281942
v 0.073968 3.694989 -0.473964
v 0.093091 3.865228 -0.458546
v 0.155927 3.333155 -0.138974
v -0.223348 3.352238 -0.411138
v 0.073968 3.694989 -0.473964
v -0.179041 3.852957 -0.701983
v -1.499335 4.183148 1.166522
v -1.985263 4.089338 -0.002402
v 0.125839 4.508797 -2.331986
v 1.394555 3.651815 -0.197251
v -0.150225 3.911138 2.107111
v -1.478821 4.842406 0.873156
v -0.339055 5.137693 -1.201402
v 1.829229 4.666668 -1.592713
v 0.427257 5.336646 1.624722
v -0.444887 5.398732 0.943705
v 0.094415 6.142273 0.090811
v -0.154217 4.115469 2.131765
v -1.499335 4.183148 1.166522
v -0.444887 5.398732 0.943705
vn 0.2411 -0.0826 0.9670
vn -0.7492 0.4684 0.4682
vn -0.6779 0.4657 -0.5688
vn -0.0000 1.0000 -0.0000
vn 0.3731 -0.0891 -0.9235
vn 0.9042 -0.4223 0.0632
vn -0.0000 -1.0000 -0.0000
vn 0.8913 0.4491 0.0623
vn 0.8629 -0.5018 0.0603
vn 0.7149 0.6974 0.0500
vn 0.3167 0.5340 -0.7839
vn 0.3509 -0.3501 -0.8685
vn 0.3595 0.2807 -0.8899
vn -0.7349 0.2821 -0.6167
vn -0.6806 0.4589 -0.5711
vn -0.6110 -0.6032 -0.5127
vn -0.8472 -0.0434 0.5294
vn -0.6429 0.6522 0.4017
vn -0.6870 -0.5863 0.4293
vn 0.2410 0.0852 0.9668
vn 0.2380 0.1796 0.9545
vn 0.2287 0.3262 0.9172
vn 0.7873 0.4671 0.4024
vn -0.2049 0.8684 0.4515
vn -0.9691 0.1920 -0.1549
vn 0.0115 0.6330 -0.7740
vn -0.3117 -0.7385 -0.5979
vn 0.7096 -0.6307 -0.3141
vn -0.0115 -0.6330 0.7740
vn 0.7078 -0.4098 -0.5754
vn 0.5391 0.0254 -0.8418
vn 0.6759 -0.2812 -0.6812
vn -0.3016 -0.5775 -0.7586
vn -0.2318 -0.1570 -0.9600
vn -0.3082 -0.6551 -0.6898
vn -0.9889 0.1280 -0.0750
vn -0.9850 -0.0648 0.1600
vn -0.9641 -0.1263 0.2334
vn -0.2114 0.7547 0.6211
vn -0.1746 0.2158 0.9607
vn -0.2086 0.5983 0.7737
vn 0.7872 0.4976 0.3642
vn 0.7732 0.3531 0.5268
vn 0.7807 0.5589 0.2798
vn -0.0851 -0.9897 0.1148
vn -0.2126 -0.9769 0.0224
vn -0.3371 -0.6944 -0.6357
vn 0.1460 -0.7699 -0.6213
vn -0.1428 -0.9895 0.0220
vn 0.9801 0.0425 -0.1938
vn -0.9118 0.1903 0.3638
vn -0.6018 0.4341 -0.6703
vn 0.4330 -0.4844 -0.7602
vn 0.7759 -0.1038 0.6222
vn -0.2739 0.3981 0.8755
vn -0.6578 0.7156 -0.2350
vn 0.2327 0.8616 -0.4512
vn 0.9074 0.3407 0.2461
vn -0.5273 0.4562 0.7168
vn -0.0207 -0.0879 0.9959
vn -0.6860 0.6796 -0.2601
vn 0.2197 0.8346 -0.5051
vn 0.6422 0.7664 -0.0100
vn -0.6155 -0.0022 0.7881
vn -0.4733 0.5383 0.6973
vn -0.2703 -0.8746 -0.4025
vn 0.0011 -0.9278 -0.3731
vn -0.1337 -0.9908 0.0219
vn -0.6953 0.4674 -0.5459
vn 0.2929 -0.8144 -0.5010
vn 0.8151 -0.1400 0.5622
vn -0.6432 0.7236 -0.2504
vn 0.1120 0.8872 -0.4475
vn 0.9190 0.1221 0.3750
vn -0.4546 0.7936 0.4044
vn -0.6908 0.6646 -0.2849
vn 0.0565 0.7790 -0.6245
vn 0.7343 0.6535 0.1839
vn -0.3285 0.8050 0.4941
vn -0.2048 0.8685 0.4515
vn -0.9641 -0.1263 0.2335
vn 0.7807 0.5588 0.2798
vn -0.5832 -0.1085 0.8051
s 0
usemtl Material.012
f 13//1 4//1 14//1
f 14//2 6//2 17//2
f 6//3 20//3 17//3
f 2//4 8//4 6//4
f 8//5 23//5 20//5
f 23//6 2//6 13//6
f 9//7 27//7 7//7
f 25//8 1//8 9//8
f 25//9 12//9 11//9
f 24//10 13//10 12//10
f 7//11 25//11 9//11
f 21//12 25//12 22//12
f 21//13 23//13 24//13
f 5//14 22//14 7//14
f 18//15 22//15 19//15
f 18//16 20//16 21//16
f 3//17 19//17 5//17
f 16//18 18//18 19//18
f 14//19 18//19 15//19
f 11//20 3//20 1//20
f 11//21 15//21 16//21
f 13//22 15//22 12//22
f 7//7 26//7 5//7
f 13//1 2//1 4//1
f 14//2 4//2 6//2
f 6//3 8//3 20//3
f 6//4 4//4 2//4
f 2//4 10//4 8//4
f 8//5 10//5 23//5
f 23//6 10//6 2//6
f 9//7 28//7 27//7
f 25//8 11//8 1//8
f 25//9 24//9 12//9
f 24//10 23//10 13//10
f 7//11 22//11 25//11
f 21//12 24//12 25//12
f 21//13 20//13 23//13
f 5//14 19//14 22//14
f 18//15 21//15 22//15
f 18//16 17//16 20//16
f 3//17 16//17 19//17
f 16//18 15//18 18//18
f 14//19 17//19 18//19
f 11//20 16//20 3//20
f 11//21 12//21 15//21
f 13//22 14//22 15//22
f 7//7 27//7 26//7
usemtl Material.011
f 41//23 32//23 42//23
f 42//24 34//24 45//24
f 34//25 48//25 45//25
f 30//26 36//26 34//26
f 36//27 51//27 48//27
f 38//28 41//28 51//28
f 31//29 35//29 37//29
f 53//30 29//30 37//30
f 52//31 39//31 53//31
f 52//32 41//32 40//32
f 35//33 53//33 37//33
f 50//34 52//34 53//34
f 49//35 51//35 52//35
f 33//36 50//36 35//36
f 47//37 49//37 50//37
f 46//38 48//38 49//38
f 31//39 47//39 33//39
f 43//40 47//40 44//40
f 42//41 46//41 43//41
f 39//42 31//42 29//42
f 40//43 44//43 39//43
f 41//44 43//44 40//44
f 41//23 30//23 32//23
f 42//80 32//80 34//80
f 34//25 36//25 48//25
f 34//26 32//26 30//26
f 30//26 38//26 36//26
f 36//27 38//27 51//27
f 38//28 30//28 41//28
f 37//29 29//29 31//29
f 31//29 33//29 35//29
f 53//30 39//30 29//30
f 52//31 40//31 39//31
f 52//32 51//32 41//32
f 35//33 50//33 53//33
f 50//34 49//34 52//34
f 49//35 48//35 51//35
f 33//36 47//36 50//36
f 47//37 46//37 49//37
f 46//81 45//81 48//81
f 31//39 44//39 47//39
f 43//40 46//40 47//40
f 42//41 45//41 46//41
f 39//42 44//42 31//42
f 40//43 43//43 44//43
f 41//82 42//82 43//82
usemtl Material.009
f 54//45 55//45 56//45
f 55//46 54//46 59//46
f 54//47 56//47 57//47
f 54//48 57//48 58//48
f 54//49 58//49 59//49
f 59//50 68//50 66//50
f 56//51 55//51 60//51
f 57//52 56//52 61//52
f 58//53 57//53 62//53
f 59//54 58//54 63//54
f 55//55 64//55 60//55
f 56//56 60//56 61//56
f 57//57 61//57 62//57
f 58//58 62//58 63//58
f 59//59 63//59 64//59
f 60//60 64//60 65//60
f 61//61 60//61 65//61
f 62//62 61//62 65//62
f 63//63 62//63 65//63
f 64//64 63//64 65//64
f 67//65 66//65 68//65
f 64//4 67//4 68//4
f 55//4 66//4 67//4
f 59//4 64//4 68//4
f 64//4 55//4 67//4
f 55//83 59//83 66//83
usemtl Material.010
f 69//45 70//45 71//45
f 70//46 69//46 74//46
f 69//66 71//66 72//66
f 69//67 72//67 73//67
f 69//68 73//68 74//68
f 74//50 83//50 81//50
f 71//51 70//51 75//51
f 72//69 71//69 76//69
f 73//70 72//70 77//70
f 74//71 73//71 78//71
f 70//55 79//55 75//55
f 71//72 75//72 76//72
f 72//73 76//73 77//73
f 73//74 77//74 78//74
f 74//59 78//59 79//59
f 75//75 79//75 80//75
f 76//76 75//76 80//76
f 77//77 76//77 80//77
f 78//78 77//78 80//78
f 79//79 78//79 80//79
f 82//65 81//65 83//65
f 79//4 82//4 83//4
f 70//4 81//4 82//4
f 74//4 79//4 83//4
f 79//4 70//4 82//4
f 70//83 74//83 81//83
